<?xml version="1.0" encoding="UTF-8" standalone="no"?>
<svg width="14px" height="14px" viewBox="0 0 14 14" version="1.1" xmlns="http://www.w3.org/2000/svg" xmlns:xlink="http://www.w3.org/1999/xlink" xmlns:sketch="http://www.bohemiancoding.com/sketch/ns">
    <!-- Generator: Sketch 3.3.3 (12081) - http://www.bohemiancoding.com/sketch -->
    <title>search icon</title>
    <desc>Created with Sketch.</desc>
    <defs></defs>
    <g id="Desktop-" stroke="none" stroke-width="1" fill="none" fill-rule="evenodd" sketch:type="MSPage">
        <g id="Desktop---author-page" sketch:type="MSArtboardGroup" transform="translate(-813.000000, -420.000000)" fill="#DDDDDD">
            <g id="Search-input" sketch:type="MSLayerGroup" transform="translate(0.000000, 400.000000)">
                <path d="M822.692308,25.9230769 C822.692308,24.8854115 822.323521,23.9978002 821.585938,23.2602163 C820.848354,22.5226325 819.960742,22.1538462 818.923077,22.1538462 C817.885411,22.1538462 816.9978,22.5226325 816.260216,23.2602163 C815.522633,23.9978002 815.153846,24.8854115 815.153846,25.9230769 C815.153846,26.9607424 815.522633,27.8483537 816.260216,28.5859375 C816.9978,29.3235213 817.885411,29.6923077 818.923077,29.6923077 C819.960742,29.6923077 820.848354,29.3235213 821.585938,28.5859375 C822.323521,27.8483537 822.692308,26.9607424 822.692308,25.9230769 L822.692308,25.9230769 Z M827,32.9230769 C827,33.214745 826.893431,33.4671464 826.680288,33.6802885 C826.467146,33.8934306 826.214745,34 825.923077,34 C825.620191,34 825.367789,33.8934306 825.165865,33.6802885 L822.280048,30.8028846 C821.276037,31.4984009 820.157057,31.8461538 818.923077,31.8461538 C818.12099,31.8461538 817.35397,31.6905064 816.621995,31.3792067 C815.89002,31.0679071 815.259017,30.6472382 814.728966,30.1171875 C814.198916,29.5871368 813.778247,28.9561335 813.466947,28.2241587 C813.155647,27.4921838 813,26.7251643 813,25.9230769 C813,25.1209896 813.155647,24.35397 813.466947,23.6219952 C813.778247,22.8900204 814.198916,22.2590171 814.728966,21.7289663 C815.259017,21.1989156 815.89002,20.7782467 816.621995,20.4669471 C817.35397,20.1556475 818.12099,20 818.923077,20 C819.725164,20 820.492184,20.1556475 821.224159,20.4669471 C821.956133,20.7782467 822.587137,21.1989156 823.117188,21.7289663 C823.647238,22.2590171 824.067907,22.8900204 824.379207,23.6219952 C824.690506,24.35397 824.846154,25.1209896 824.846154,25.9230769 C824.846154,27.1570575 824.498401,28.2760366 823.802885,29.2800481 L826.688702,32.1658654 C826.896235,32.3733985 827,32.6257998 827,32.9230769 L827,32.9230769 Z" id="search-icon" sketch:type="MSShapeGroup"></path>
            </g>
        </g>
    </g>
</svg>